<?xml version="1.0" encoding="UTF-8" standalone="no"?>
<!-- Created with Inkscape (http://www.inkscape.org/) -->

<svg
   width="30.907227"
   height="58.999176"
   viewBox="0 0 30.907227 58.999176"
   version="1.1"
   id="svg1"
   xml:space="preserve"
   xmlns:xlink="http://www.w3.org/1999/xlink"
   xmlns="http://www.w3.org/2000/svg"
   xmlns:svg="http://www.w3.org/2000/svg"><defs
     id="defs1" /><g
     id="layer8"
     transform="translate(-6568.583,-46.817848)"><g
       id="g31"
       transform="translate(-37.959356,-13.178729)"><rect
         style="fill:#929292;fill-opacity:1;stroke:none;stroke-width:1.88976;stroke-linecap:round;stroke-linejoin:round;stroke-opacity:1;paint-order:markers fill stroke"
         id="rect21"
         width="75.918945"
         height="3.9114685"
         x="5018.8257"
         y="465.72601"
         ry="0"
         rx="0" /><rect
         style="fill:#929292;fill-opacity:1;stroke:none;stroke-width:1.88976;stroke-linecap:round;stroke-linejoin:round;stroke-opacity:1;paint-order:markers fill stroke"
         id="rect24"
         width="80.944244"
         height="4.1703801"
         x="5018.8257"
         y="481.23624"
         ry="0"
         rx="0" /></g></g><g
     id="g41"
     transform="translate(-4637.9637,-46.817848)"><g
       id="g40"
       transform="matrix(0.27106385,0,0,0.27106385,3281.2364,-51.010967)"><rect
         style="fill:#003434;fill-opacity:1;stroke:none;stroke-width:1.88976;stroke-linecap:round;stroke-linejoin:round;stroke-opacity:1;paint-order:markers fill stroke"
         id="rect33"
         width="114.02051"
         height="160.06476"
         x="5005.1953"
         y="418.5"
         ry="11.667255"
         rx="11.667255" /><rect
         style="fill:#929292;fill-opacity:1;stroke:none;stroke-width:1.88976;stroke-linecap:round;stroke-linejoin:round;stroke-opacity:1;paint-order:markers fill stroke"
         id="rect34"
         width="84.462402"
         height="4.9185319"
         x="5018.8257"
         y="433.69849"
         ry="0"
         rx="0" /><rect
         style="fill:#929292;fill-opacity:1;stroke:none;stroke-width:1.88976;stroke-linecap:round;stroke-linejoin:round;stroke-opacity:1;paint-order:markers fill stroke"
         id="rect35"
         width="67.169136"
         height="3.9114754"
         x="5018.8257"
         y="450.21579"
         ry="0"
         rx="0" /><rect
         style="fill:#929292;fill-opacity:1;stroke:none;stroke-width:1.88976;stroke-linecap:round;stroke-linejoin:round;stroke-opacity:1;paint-order:markers fill stroke"
         id="rect36"
         width="75.918945"
         height="3.9114685"
         x="5018.8257"
         y="465.72601"
         ry="0"
         rx="0" /><rect
         style="fill:#929292;fill-opacity:1;stroke:none;stroke-width:1.88976;stroke-linecap:round;stroke-linejoin:round;stroke-opacity:1;paint-order:markers fill stroke"
         id="rect37"
         width="80.944244"
         height="4.1703801"
         x="5018.8257"
         y="481.23624"
         ry="0"
         rx="0" /><use
         x="0"
         y="0"
         xlink:href="#rect21"
         id="use39"
         transform="translate(0,31.279362)" /><use
         x="0"
         y="0"
         xlink:href="#rect24"
         id="use40"
         transform="translate(0,31.279361)" /><path
         style="fill:#929292;fill-opacity:1;stroke:none;stroke-width:1.88976;stroke-linecap:round;stroke-linejoin:round;stroke-opacity:1;paint-order:markers fill stroke"
         id="path40"
         d="m 5093.635,528.11499 a 17.515045,17.515045 0 0 1 2.1782,22.11585 17.515045,17.515045 0 0 1 -21.2659,6.45095 17.515045,17.515045 0 0 1 -10.4758,-19.59881 17.515045,17.515045 0 0 1 17.1785,-14.09803 V 540.5 Z" /><rect
         style="fill:#929292;fill-opacity:1;stroke:none;stroke-width:1.88976;stroke-linecap:round;stroke-linejoin:round;stroke-opacity:1;paint-order:markers fill stroke"
         id="rect40"
         width="39.315918"
         height="3.911499"
         x="5018.8257"
         y="528.28473"
         ry="0"
         rx="0" /><path
         d="m 5005.5355,349.12305 v 23.37841 h -17.1082 l 30.3985,24.1037 30.3984,-24.1037 h -17.1082 v -23.37841 z"
         style="fill:#005353;fill-opacity:0.476684;stroke:#005353;stroke-width:2.78976;stroke-linecap:round;stroke-linejoin:round;stroke-dasharray:none;stroke-opacity:1;paint-order:markers fill stroke"
         id="path41"
         transform="translate(37.959356,13.178729)" /></g></g></svg>
